<?xml version="1.0" encoding="UTF-8"?>
<svg version="1.1" xmlns="http://www.w3.org/2000/svg" width="512" height="512">
<path d="M0 0 C1.7656466 -0.00417778 3.53129051 -0.00965774 5.29692948 -0.01631981 C10.12690619 -0.03073476 14.9567117 -0.02654206 19.78669763 -0.019153 C25.00426843 -0.01441384 30.22180259 -0.02693779 35.43936157 -0.03717041 C45.65249632 -0.05434906 55.86556951 -0.05520035 66.07871495 -0.04995751 C74.38164685 -0.04591285 82.68456058 -0.04736288 90.98749161 -0.05270576 C92.17010243 -0.05345419 93.35271326 -0.05420261 94.57116077 -0.05497371 C96.97378539 -0.05650522 99.37641001 -0.05804357 101.77903463 -0.05958868 C124.30028421 -0.07331034 146.82149904 -0.06787836 169.34274782 -0.05640347 C189.93565401 -0.04647139 210.52847034 -0.05941195 231.12136267 -0.08333766 C252.27900521 -0.10773385 273.43660592 -0.11733524 294.59426224 -0.11068493 C306.46754006 -0.10719388 318.34074879 -0.10941729 330.21401596 -0.12693596 C340.32136456 -0.14166439 350.4285954 -0.1422849 360.53594171 -0.12486505 C365.6899806 -0.11635806 370.84380919 -0.11419828 375.99783707 -0.1295166 C380.72172884 -0.1433824 385.4452305 -0.13857614 390.16909982 -0.11927737 C391.87222007 -0.11552287 393.57537171 -0.11842335 395.27846394 -0.12888902 C412.52680548 -0.22729208 426.19123709 3.56791686 439.2661438 15.45018005 C449.67541037 26.34533698 452.82074338 39.69582774 452.78356934 54.29714966 C452.78810045 55.6014006 452.79263156 56.90565154 452.79729998 58.24942523 C452.80950599 61.85897165 452.80927235 65.46842522 452.80691123 69.07798755 C452.80650245 72.97521375 452.81754813 76.87241043 452.82702637 80.7696228 C452.8436247 88.40148273 452.84913541 96.03331175 452.85025112 103.66518822 C452.85120225 109.8710635 452.85531578 116.07692861 452.86165237 122.28280067 C452.87926242 139.88866993 452.88849174 157.49451483 452.88699143 175.10039296 C452.88687156 176.52348508 452.88687156 176.52348508 452.88674927 177.97532654 C452.88666751 178.92521703 452.88658574 179.87510752 452.88650151 180.85378257 C452.88568891 196.24207235 452.9048206 211.63026417 452.933026 227.01852562 C452.96177762 242.82994566 452.97556501 258.64131797 452.97383845 274.45276481 C452.97317528 283.32527892 452.9786352 292.19769037 453.00019455 301.07018089 C453.01843645 308.62569585 453.02272912 316.18106162 453.0091757 323.7365891 C453.00266088 327.58826064 453.00247459 331.43964622 453.0198822 335.29129028 C453.03859757 339.47550561 453.02601962 343.65906342 453.01062012 347.84329224 C453.02090724 349.04866676 453.03119437 350.25404127 453.04179323 351.49594229 C452.92751222 365.58926627 448.02115107 377.76602218 438.3911438 388.07518005 C425.03185195 400.73960941 410.64089897 402.84337455 393.0322876 402.77536011 C391.266641 402.77953789 389.50099709 402.78501784 387.73535812 402.79167992 C382.9053814 402.80609486 378.0755759 402.80190217 373.24558997 402.79451311 C368.02801917 402.78977395 362.810485 402.8022979 357.59292603 402.81253052 C347.37979128 402.82970917 337.16671809 402.83056046 326.95357265 402.82531761 C318.65064075 402.82127296 310.34772702 402.82272299 302.04479599 402.82806587 C300.86218517 402.82881429 299.67957434 402.82956272 298.46112683 402.83033382 C296.0585022 402.83186533 293.65587758 402.83340367 291.25325297 402.83494879 C268.73200339 402.84867044 246.21078856 402.84323847 223.68953978 402.83176357 C203.09663359 402.82183149 182.50381725 402.83477206 161.91092493 402.85869776 C140.75328238 402.88309396 119.59568168 402.89269535 98.43802536 402.88604504 C86.56474753 402.88255399 74.69153881 402.8847774 62.81827164 402.90229607 C52.71092304 402.9170245 42.6036922 402.91764501 32.49634589 402.90022516 C27.34230699 402.89171817 22.18847841 402.88955839 17.03445053 402.90487671 C12.31055875 402.91874251 7.5870571 402.91393625 2.86318778 402.89463747 C1.16006753 402.89088298 -0.54308412 402.89378346 -2.24617635 402.90424912 C-19.49451788 403.00265218 -33.15894949 399.20744324 -46.2338562 387.32518005 C-56.64312277 376.43002312 -59.78845578 363.07953237 -59.75128174 348.47821045 C-59.75581285 347.17395951 -59.76034396 345.86970857 -59.76501238 344.52593488 C-59.77721839 340.91638846 -59.77698476 337.30693489 -59.77462363 333.69737256 C-59.77421485 329.80014636 -59.78526053 325.90294968 -59.79473877 322.0057373 C-59.8113371 314.37387738 -59.81684781 306.74204836 -59.81796353 299.11017189 C-59.81891465 292.90429661 -59.82302819 286.6984315 -59.82936478 280.49255943 C-59.84697482 262.88669017 -59.85620414 245.28084528 -59.85470383 227.67496715 C-59.85462392 226.72623907 -59.854544 225.77751099 -59.85446167 224.80003357 C-59.85437991 223.85014308 -59.85429815 222.90025259 -59.85421391 221.92157754 C-59.85340131 206.53328776 -59.872533 191.14509594 -59.9007384 175.75683448 C-59.92949002 159.94541444 -59.94327741 144.13404214 -59.94155085 128.3225953 C-59.94088769 119.45008119 -59.9463476 110.57766974 -59.96790695 101.70517921 C-59.98614885 94.14966426 -59.99044152 86.59429849 -59.97688811 79.03877101 C-59.97037328 75.18709947 -59.97018699 71.33571388 -59.9875946 67.48406982 C-60.00630997 63.29985449 -59.99373202 59.11629669 -59.97833252 54.93206787 C-59.98861965 53.72669335 -59.99890677 52.52131883 -60.00950563 51.27941781 C-59.89522462 37.18609384 -54.98886348 25.00933793 -45.3588562 14.70018005 C-31.99956435 2.0357507 -17.60861137 -0.06801444 0 0 Z M-16.4838562 47.38768005 C-22.79030067 72.61345793 -17.4838562 99.38554339 -17.4838562 125.38768005 C123.4261438 125.38768005 264.3361438 125.38768005 409.5161438 125.38768005 C409.5161438 99.64768005 409.5161438 73.90768005 409.5161438 47.38768005 C404.2679057 43.18908958 403.64701621 42.88752822 397.41804504 42.88431549 C396.71141035 42.87850173 396.00477566 42.87268796 395.2767278 42.86669803 C392.90265577 42.85206945 390.52961303 42.86599574 388.1555481 42.87974548 C386.43887394 42.87513768 384.72220373 42.86878557 383.0055418 42.86083651 C378.2833299 42.84410346 373.56144042 42.85240757 368.8392272 42.86478138 C363.7484882 42.87381331 358.65780553 42.85987138 353.56707764 42.84886169 C343.5924076 42.83105202 333.61785779 42.83492736 323.64318299 42.84651226 C315.53835705 42.85553668 307.43356487 42.85677488 299.32873535 42.85241699 C298.17630614 42.85180406 297.02387693 42.85119113 295.83652562 42.85055962 C293.49556993 42.84928075 291.15461426 42.8479839 288.8136586 42.84666926 C266.84967492 42.83525628 244.88575797 42.84838842 222.92178524 42.86987072 C204.06550935 42.88774234 185.20933196 42.88463843 166.35305786 42.86619568 C144.46900338 42.84480164 122.58500742 42.83635499 100.70094395 42.84864473 C98.36848006 42.84991896 96.03601616 42.85117645 93.70355225 42.85241699 C92.55586087 42.85303409 91.4081695 42.8536512 90.2256996 42.854287 C82.12827604 42.8577443 74.03088951 42.85190337 65.93347168 42.84249878 C56.06875097 42.83129371 46.20415762 42.83428741 36.33945155 42.85562176 C31.30391347 42.86615226 26.26858792 42.87021997 21.2330513 42.85702515 C16.62652055 42.8451368 12.02040004 42.85160482 7.41390669 42.87293535 C5.7443996 42.87741656 4.07485809 42.87510127 2.40537298 42.8654322 C0.14116556 42.85332108 -2.12162481 42.86568758 -4.38575745 42.88431549 C-6.27440789 42.8852896 -6.27440789 42.8852896 -8.20121288 42.8862834 C-12.11577222 43.48420001 -13.7657496 44.54171461 -16.4838562 47.38768005 Z M-17.4838562 168.38768005 C-37.36031182 271.91674105 -37.36031182 271.91674105 -13.79479688 358.17641026 C-10.59948892 359.85121743 -8.11225797 359.76505238 -4.50880527 359.76799679 C-3.450584 359.77498667 -3.450584 359.77498667 -2.37098452 359.78211775 C0.00502576 359.79411704 2.38046941 359.78465366 4.75648499 359.77536011 C6.47229425 359.77953088 8.18810076 359.78500697 9.90390211 359.79167992 C14.62832098 359.806187 19.35256619 359.80187344 24.07699478 359.79451311 C29.1684274 359.78979671 34.25982162 359.80227769 39.35124207 359.81253052 C49.32937012 359.82975388 59.3074353 359.83055122 69.28557437 359.82531761 C77.39328109 359.8212813 85.50096918 359.82271306 93.608675 359.82806587 C94.7612397 359.82881429 95.91380441 359.82956272 97.10129531 359.83033382 C99.44249252 359.83186524 101.78368973 359.83340359 104.12488694 359.83494879 C126.09552894 359.84868659 148.06613536 359.84322712 170.03677655 359.83176357 C190.15054361 359.82182954 210.26421871 359.83477255 230.37797158 359.85869776 C251.01554842 359.8830617 271.65308238 359.89270332 292.29067332 359.88604504 C303.8832263 359.88254683 315.47570852 359.88482447 327.06825066 359.90229607 C336.93664906 359.91698424 346.80492689 359.91769791 356.67332285 359.90022516 C361.71088348 359.89168486 366.7482284 359.8896392 371.78577805 359.90487671 C376.39419186 359.91864392 381.00220355 359.91406405 385.61059362 359.89463747 C387.28080648 359.89085254 388.95105094 359.89387058 390.62123584 359.90424912 C392.88639732 359.91732775 395.15015195 359.90591934 397.41525173 359.8882513 C398.6748941 359.88814397 399.93453647 359.88803663 401.23234981 359.88792604 C405.1388604 359.57280062 405.1388604 359.57280062 409.5161438 355.38768005 C409.5161438 293.67768005 409.5161438 231.96768005 409.5161438 168.38768005 C268.6061438 168.38768005 127.6961438 168.38768005 -17.4838562 168.38768005 Z " fill="#FFCA28" transform="translate(59.483856201171875,54.61231994628906)"/>
<path d="M0 0 C0.90621094 0.05542969 1.81242187 0.11085937 2.74609375 0.16796875 C8.93019176 1.58319229 13.63011641 6.42272043 18.3125 10.5 C18.92520752 11.02891846 19.53791504 11.55783691 20.16918945 12.1027832 C23.73625873 15.19194081 27.25776781 18.32625938 30.75 21.5 C34.0633308 24.51064479 37.45191929 27.37815178 40.9375 30.1875 C45.49110712 33.86886689 49.79832516 37.74024473 54.08154297 41.72607422 C57.31426204 44.71662641 60.62937666 47.55021685 64.0625 50.3125 C68.57655228 53.94449609 72.83514275 57.7718513 77.07104492 61.71777344 C80.40393225 64.803279 83.83393731 67.71414861 87.375 70.5625 C101.7741634 82.23974363 101.7741634 82.23974363 102.875 91.41796875 C103.22913052 99.44123846 101.29300344 104.49161744 96.25 110.625 C91.69620768 114.33157514 87.6758742 115.9884653 81.828125 115.88671875 C81.02665039 115.87600342 80.22517578 115.86528809 79.39941406 115.85424805 C78.79323242 115.84047119 78.18705078 115.82669434 77.5625 115.8125 C77.58344727 117.12331543 77.60439453 118.43413086 77.62597656 119.78466797 C77.69882587 124.68608512 77.74446229 129.5874552 77.78222656 134.48925781 C77.80224016 136.60359772 77.82945972 138.71788299 77.86425781 140.83203125 C77.91322941 143.88555448 77.93557182 146.93834078 77.953125 149.9921875 C77.97377014 150.92489471 77.99441528 151.85760193 78.01568604 152.818573 C78.01810815 160.03526271 76.78323124 167.22470715 71.81207275 172.76242065 C67.12073817 177.07281025 62.57508788 179.05676324 56.15568542 179.07992554 C54.54719978 179.09272049 54.54719978 179.09272049 52.90621948 179.10577393 C51.73986969 179.10486755 50.5735199 179.10396118 49.37182617 179.10302734 C48.13548935 179.10974457 46.89915253 179.11646179 45.62535095 179.12338257 C42.24084503 179.13911251 38.85658454 179.14573686 35.47205901 179.14701414 C33.35480374 179.14843795 31.23757401 179.15271191 29.12032509 179.15800858 C21.72595213 179.17650124 14.33165118 179.18468028 6.93725586 179.18310547 C0.05768063 179.18190474 -6.82158054 179.20299537 -13.70107633 179.2345928 C-19.61804097 179.26079541 -25.53490329 179.27147108 -31.45192546 179.27019465 C-34.98119862 179.26968612 -38.51019264 179.27530823 -42.03940773 179.29655075 C-45.97927598 179.31961833 -49.91871792 179.31038781 -53.85864258 179.29833984 C-55.01891968 179.30957886 -56.17919678 179.32081787 -57.37463379 179.33239746 C-65.67987412 179.26793267 -71.2426687 177.93633504 -77.25 172.0625 C-82.11518259 164.83422872 -82.86985918 158.67694409 -82.73046875 150.1875 C-82.72622391 149.19999756 -82.72197906 148.21249512 -82.71760559 147.19506836 C-82.70092646 144.06725823 -82.66329435 140.9401126 -82.625 137.8125 C-82.60993925 135.68099894 -82.59625329 133.5494877 -82.58398438 131.41796875 C-82.5510584 126.21592236 -82.50096767 121.01425867 -82.4375 115.8125 C-83.05365173 115.82233414 -83.66980347 115.83216827 -84.30462646 115.84230042 C-85.11385559 115.84994919 -85.92308472 115.85759796 -86.75683594 115.86547852 C-87.55861267 115.87531265 -88.3603894 115.88514679 -89.1864624 115.89527893 C-94.52255082 115.69905134 -99.5003464 112.83831052 -103.14453125 109.02734375 C-107.89594312 102.57802101 -108.12781377 96.5637375 -107.4375 88.8125 C-104.73638855 79.1470771 -95.83153221 73.24778172 -88.39453125 67.265625 C-85.31101646 64.70757046 -82.367808 62.04223838 -79.4375 59.3125 C-75.7290592 55.86069664 -71.95242793 52.54726799 -68 49.375 C-63.81512693 46.00903735 -59.85435602 42.48073983 -55.9375 38.8125 C-51.17658666 34.35377805 -46.27282437 30.17452376 -41.18359375 26.08984375 C-38.17428781 23.59421735 -35.29846293 20.97449137 -32.4375 18.3125 C-11.76107047 -0.88416558 -11.76107047 -0.88416558 0 0 Z M-3.4375 50.8125 C-5.09000046 51.73901422 -5.09000046 51.73901422 -6.66015625 53.2421875 C-7.27600586 53.78584961 -7.89185547 54.32951172 -8.52636719 54.88964844 C-9.50331543 55.77958496 -9.50331543 55.77958496 -10.5 56.6875 C-11.17321289 57.28594727 -11.84642578 57.88439453 -12.54003906 58.50097656 C-14.51553662 60.26106836 -16.47852309 62.03405727 -18.4375 63.8125 C-19.83548828 65.07707031 -19.83548828 65.07707031 -21.26171875 66.3671875 C-22.81116997 67.76942838 -24.34408494 69.19030941 -25.85449219 70.63452148 C-28.4375 72.8125 -28.4375 72.8125 -31.28344727 74.22729492 C-34.88578565 76.24425359 -37.53275533 78.13721698 -39.4375 81.8125 C-41.36321538 90.75333593 -40.45633328 100.31864588 -40.125 109.375 C-39.898125 118.099375 -39.67125 126.82375 -39.4375 135.8125 C-15.0175 135.8125 9.4025 135.8125 34.5625 135.8125 C34.85125 127.15 35.14 118.4875 35.4375 109.5625 C35.56495605 106.85256836 35.69241211 104.14263672 35.82373047 101.35058594 C36.60449718 88.66819435 36.60449718 88.66819435 31.56616211 77.56518555 C28.72247754 74.89614872 25.65054318 72.81394476 22.27975464 70.86882019 C19.68288487 69.27142985 17.56837782 67.22775786 15.375 65.125 C6.78915193 56.64721651 6.78915193 56.64721651 -3.4375 50.8125 Z " fill="#FFCA27" transform="translate(258.4375,228.1875)"/>
<path d="M0 0 C5.57355288 5.86689777 6.40417094 11.26228218 6.25 19.125 C5.70236937 25.42275224 2.55159362 28.89246429 -2 33 C-7.7988978 37.77556289 -13.73625144 37.64607675 -21 37 C-27.18888383 35.29626084 -31.57674042 31.34884309 -35 26 C-37.73995271 19.02557492 -37.82287622 12.74123777 -34.9765625 5.8515625 C-32.10875414 0.41419785 -26.46820848 -3.74759138 -20.75 -5.8125 C-12.62411742 -6.36653745 -6.38176039 -5.25904328 0 0 Z " fill="#FFCA27" transform="translate(183,123)"/>
<path d="M0 0 C5.48440618 4.12561255 8.42136754 9.40352956 9.5625 16.1484375 C9.85291194 22.04742995 8.63048619 26.78601881 5.125 31.5625 C0.94592726 36.01885718 -3.29472385 39.10225523 -9.48828125 39.8984375 C-16.85077826 40.00498594 -22.11428133 39.02169111 -27.62890625 33.94921875 C-32.58311497 28.56524735 -34.40073758 23.22434001 -34.1796875 15.9296875 C-33.37424633 9.6720292 -30.95981027 5.03963953 -26 1.125 C-17.71595082 -4.34703249 -8.77483778 -5.17114814 0 0 Z " fill="#FFCA27" transform="translate(244.875,120.4375)"/>
<path d="M0 0 C4.53077892 3.28703569 8.06569574 7.0407044 10.1875 12.3125 C10.94593788 18.97969815 11.08885278 25.68749637 7.59765625 31.59375 C4.27018009 35.64939961 0.15201563 38.65766146 -4.8125 40.3125 C-12.12057296 40.97293326 -18.89088995 41.08671567 -24.8125 36.3125 C-30.90199084 29.57008782 -32.2305969 24.95070884 -32.15625 15.87109375 C-31.53986218 9.49007898 -28.50498231 5.69802785 -23.9375 1.4375 C-16.66436211 -3.50823377 -7.87577651 -4.10089452 0 0 Z " fill="#FFCA27" transform="translate(113.8125,119.6875)"/>
</svg>
