<?xml version="1.0" encoding="UTF-8"?>
<svg version="1.1" xmlns="http://www.w3.org/2000/svg" width="128" height="128">
<path d="M0 0 C1.65 0 3.3 0 5 0 C5 2.31 5 4.62 5 7 C6.32 7 7.64 7 9 7 C9 8.32 9 9.64 9 11 C20.88 11 32.76 11 45 11 C45 9.68 45 8.36 45 7 C46.32 7 47.64 7 49 7 C49 4.69 49 2.38 49 0 C50.65 0 52.3 0 54 0 C54 2.31 54 4.62 54 7 C54.99 7 55.98 7 57 7 C57 8.32 57 9.64 57 11 C61.95 11 66.9 11 72 11 C72 49.61 72 88.22 72 128 C42.3 128 12.6 128 -18 128 C-18 89.39 -18 50.78 -18 11 C-13.05 11 -8.1 11 -3 11 C-3 9.68 -3 8.36 -3 7 C-2.01 7 -1.02 7 0 7 C0 4.69 0 2.38 0 0 Z " fill="#F9E45A" transform="translate(37,0)"/>
<path d="M0 0 C6.50952177 4.4783552 11.05690331 10.89754861 12.703125 18.6796875 C13.69944458 29.22534701 11.80985579 37.19330894 5.140625 45.4921875 C-1.30756921 52.18975939 -8.17152566 54.92320994 -17.421875 55.2421875 C-26.51854313 54.8648148 -32.84239865 51.89294713 -39.50390625 45.75 C-45.512345 38.81215133 -47.67176634 30.85719066 -47.57421875 21.8828125 C-46.88014461 13.86674496 -43.25772848 7.03898696 -37.296875 1.6796875 C-25.312981 -7.33220079 -12.92878546 -7.43185287 0 0 Z " fill="#0B0C09" transform="translate(81.296875,35.3203125)"/>
<path d="M0 0 C1.65 0 3.3 0 5 0 C5 2.31 5 4.62 5 7 C6.32 7 7.64 7 9 7 C9 8.32 9 9.64 9 11 C20.88 11 32.76 11 45 11 C45 9.68 45 8.36 45 7 C46.32 7 47.64 7 49 7 C49 4.69 49 2.38 49 0 C50.65 0 52.3 0 54 0 C54 2.31 54 4.62 54 7 C54.99 7 55.98 7 57 7 C57 8.32 57 9.64 57 11 C61.95 11 66.9 11 72 11 C72 49.61 72 88.22 72 128 C65.73 128 59.46 128 53 128 C53 126.68 53 125.36 53 124 C57.95 124 62.9 124 68 124 C68 88.03 68 52.06 68 15 C64.37 15 60.74 15 57 15 C57 18.96 57 22.92 57 27 C53.37 27 49.74 27 46 27 C46 23.04 46 19.08 46 15 C33.46 15 20.92 15 8 15 C8 18.96 8 22.92 8 27 C4.37 27 0.74 27 -3 27 C-3 23.04 -3 19.08 -3 15 C-6.63 15 -10.26 15 -14 15 C-14 19.95 -14 24.9 -14 30 C-15.32 30.33 -16.64 30.66 -18 31 C-18 24.4 -18 17.8 -18 11 C-13.05 11 -8.1 11 -3 11 C-3 9.68 -3 8.36 -3 7 C-2.01 7 -1.02 7 0 7 C0 4.69 0 2.38 0 0 Z " fill="#080905" transform="translate(37,0)"/>
<path d="M0 0 C2.89311672 1.32311027 5.08581133 2.80305739 7.4375 4.9375 C10.1387361 7.31854647 12.82531171 9.26835184 16 11 C16.33 10.01 16.66 9.02 17 8 C27.00677813 7.4753728 27.00677813 7.4753728 32 11 C35.87718461 11.41235885 35.87718461 11.41235885 37.890625 9.51171875 C40.65270127 7.53223076 42.39354378 7.69262656 45.75 7.8125 C46.73484375 7.83957031 47.7196875 7.86664063 48.734375 7.89453125 C49.85585937 7.94673828 49.85585937 7.94673828 51 8 C51.495 9.485 51.495 9.485 52 11 C53.58689029 9.9218837 55.16936082 8.83726048 56.75 7.75 C57.63171875 7.14671875 58.5134375 6.5434375 59.421875 5.921875 C61.85433494 4.10858668 63.91728069 2.19950731 66 0 C66.99 0.33 67.98 0.66 69 1 C66.43767616 7.0923338 60.64799244 11.77784964 54.75 14.5 C51.26020011 16.40352721 50.16468723 18.59357195 48.37109375 22.0625 C46.51687972 24.68269988 44.93587419 25.68127629 42 27 C39.25231001 27.31540185 36.80088151 27.46546861 34.0625 27.4375 C33.02706055 27.4674707 33.02706055 27.4674707 31.97070312 27.49804688 C26.84262759 27.49318614 23.90399423 26.27186323 20 23 C19.10063841 21.26551693 18.20200352 19.53061361 17.31640625 17.7890625 C15.07466122 14.74241792 11.81743539 13.34529792 8.55078125 11.5546875 C4.78113064 9.25710566 1.92546323 6.27419394 -1 3 C-0.67 2.01 -0.34 1.02 0 0 Z " fill="#090B04" transform="translate(30,86)"/>
<path d="M0 0 C1.32 0 2.64 0 4 0 C4 29.7 4 59.4 4 90 C25.12 90 46.24 90 68 90 C68 91.32 68 92.64 68 94 C45.56 94 23.12 94 0 94 C0 62.98 0 31.96 0 0 Z " fill="#0F0D00" transform="translate(19,34)"/>
<path d="M0 0 C3.63 0 7.26 0 11 0 C11 0.33 11 0.66 11 1 C8.36 1 5.72 1 3 1 C3 35.65 3 70.3 3 106 C29.07 106 55.14 106 82 106 C82 106.99 82 107.98 82 109 C77.05 109 72.1 109 67 109 C67 109.99 67 110.98 67 112 C66.01 112 65.02 112 64 112 C64 111.01 64 110.02 64 109 C42.88 109 21.76 109 0 109 C0 79.3 0 49.6 0 19 C-0.99 19 -1.98 19 -3 19 C-3 17.68 -3 16.36 -3 15 C-2.01 15 -1.02 15 0 15 C0 10.05 0 5.1 0 0 Z " fill="#F5D501" transform="translate(23,15)"/>
<path d="M0 0 C2.47483477 2.37106811 2.52048865 3.77322651 2.61328125 7.16015625 C2.48095703 12.15539551 2.48095703 12.15539551 0.06640625 14.6171875 C-1.959359 15.86353598 -3.93309005 16.89485091 -6.13671875 17.78515625 C-7.62748704 16.90876519 -9.10405744 16.00819297 -10.57421875 15.09765625 C-11.39792969 14.59878906 -12.22164062 14.09992188 -13.0703125 13.5859375 C-15.13671875 11.78515625 -15.13671875 11.78515625 -15.9921875 9.30859375 C-16.21142413 5.48084069 -15.00347437 3.08309118 -13.13671875 -0.21484375 C-8.75202705 -3.05896809 -4.46563362 -2.53896171 0 0 Z " fill="#DEE8F1" transform="translate(60.13671875,67.21484375)"/>
<path d="M0 0 C2.68457524 2.01343143 3.05601442 4.09493051 3.75 7.3125 C3.8125 9.875 3.8125 9.875 2.75 12.3125 C0.63042871 14.43207129 -1.54709736 16.01280639 -4.25 17.3125 C-6.875 17.3125 -6.875 17.3125 -9.25 16.3125 C-10.178125 16.02375 -11.10625 15.735 -12.0625 15.4375 C-14.79109468 12.78686517 -14.72878693 11.60698851 -14.9375 7.875 C-14.74223277 3.66280681 -14.63301327 2.713752 -11.625 -0.4375 C-7.0391226 -2.13597311 -4.52321147 -1.38209239 0 0 Z " fill="#DCE6EF" transform="translate(80.25,66.6875)"/>
<path d="M0 0 C2.28125 0.4765625 2.28125 0.4765625 4.34375 2.4765625 C6.73331635 10.12317481 6.73331635 10.12317481 6.28125 13.4765625 C4.53545528 16.09833902 3.13131521 16.84041395 0.28125 18.4765625 C-2.28125 18.4765625 -2.28125 18.4765625 -4.71875 17.4765625 C-5.605625 17.1465625 -6.4925 16.8165625 -7.40625 16.4765625 C-10.44623578 13.84738561 -11.03245709 11.61156303 -11.67578125 7.70703125 C-11.71875 5.4765625 -11.71875 5.4765625 -10.46875 2.4140625 C-6.88626354 -0.10996205 -4.31421539 -0.24108851 0 0 Z " fill="#DDE7F0" transform="translate(83.71875,45.5234375)"/>
<path d="M0 0 C2.8203125 -0.29296875 2.8203125 -0.29296875 6.125 -0.1875 C7.76855469 -0.14689453 7.76855469 -0.14689453 9.4453125 -0.10546875 C10.28835937 -0.07066406 11.13140625 -0.03585938 12 0 C15.76394503 6.74373484 15.76394503 6.74373484 15 11 C13.625 13.8125 13.625 13.8125 11 16 C7.53291904 16.71990884 4.46902287 16.70185869 1 16 C-1.6875 14 -1.6875 14 -3 11 C-3.15722166 6.74674038 -2.3880495 3.58207425 0 0 Z " fill="#D7E1EA" transform="translate(58,34)"/>
<path d="M0 0 C3.56012587 0.20328684 4.83047195 0.46152569 7.8125 2.5625 C9.3826741 6.40942655 9.07373835 8.6609383 7.9609375 12.6015625 C7.0625 14.625 7.0625 14.625 4.75 16.625 C3.863125 16.955 2.97625 17.285 2.0625 17.625 C1.258125 17.955 0.45375 18.285 -0.375 18.625 C-3.63690352 18.625 -5.45435213 17.4794668 -7.83203125 15.28515625 C-9.22211883 13.1975689 -9.23976834 12.10260615 -9 9.625 C-7.63142308 3.60326154 -6.6559763 0.37195162 0 0 Z " fill="#DCE6F0" transform="translate(46.9375,45.375)"/>
<path d="M0 0 C2.64 0 5.28 0 8 0 C8.99 2.97 9.98 5.94 11 9 C8.3125 11.125 8.3125 11.125 5 13 C1.72603721 12.2386133 -0.19064465 10.87290357 -3 9 C-2.01 6.03 -1.02 3.06 0 0 Z " fill="#547188" transform="translate(60,53)"/>
<path d="M0 0 C0.2130417 3.12461161 0.25320885 5.41445453 -1 8.3125 C-4.09727571 10.92582638 -7.00230208 10.73785587 -11 11 C-11.48076923 4.75 -11.48076923 4.75 -9.4375 1.5625 C-6.18129203 -0.5248128 -3.79004984 -0.2915423 0 0 Z " fill="#00CB37" transform="translate(77,98)"/>
<path d="M0 0 C3.65236803 -0.33975517 5.61672415 -0.20830209 8.875 1.5625 C11 4 11 4 11.3125 7.75 C11.1578125 9.35875 11.1578125 9.35875 11 11 C6.98313013 11.46707789 5.43498188 11.32150834 2.125 8.875 C-0.32150834 5.56501812 -0.46707789 4.01686987 0 0 Z " fill="#00A80B" transform="translate(51,98)"/>
<path d="M0 0 C2.64 0 5.28 0 8 0 C8 0.33 8 0.66 8 1 C6.35 1.33 4.7 1.66 3 2 C2.04979584 4.239835 2.04979584 4.239835 2 7 C4.333492 9.83411155 4.333492 9.83411155 7 12 C5.375 12.75 5.375 12.75 3 13 C-0.25 11.0625 -0.25 11.0625 -3 9 C-2.01 6.03 -1.02 3.06 0 0 Z " fill="#44596B" transform="translate(60,53)"/>
<path d="M0 0 C0.2475 0.59554687 0.495 1.19109375 0.75 1.8046875 C2.1917961 4.33684191 3.6275501 5.45905172 6 7.125 C8.19111681 8.67972627 10.09558225 10.09558225 12 12 C11.01 12.66 10.02 13.32 9 14 C7.50923171 13.12360894 6.03266131 12.22303672 4.5625 11.3125 C3.73878906 10.81363281 2.91507813 10.31476563 2.06640625 9.80078125 C0 8 0 8 -0.84765625 5.48046875 C-1 3 -1 3 0 0 Z " fill="#B7C9DA" transform="translate(45,71)"/>
<path d="M0 0 C2.7019433 0.36512747 4.58390852 0.69869237 6.8125 2.3125 C8 4 8 4 8 8 C5.2980567 7.63487253 3.41609148 7.30130763 1.1875 5.6875 C0 4 0 4 0 0 Z " fill="#00C936" transform="translate(54,98)"/>
<path d="M0 0 C0.33 0 0.66 0 1 0 C1 1.98 1 3.96 1 6 C2.98 6 4.96 6 7 6 C6.67 6.66 6.34 7.32 6 8 C3.35139573 8.59355614 0.70802678 8.74209269 -2 9 C-2.125 5.625 -2.125 5.625 -2 2 C-1.34 1.34 -0.68 0.68 0 0 Z " fill="#00A40B" transform="translate(68,100)"/>
<path d="M0 0 C0.99 0 1.98 0 3 0 C3 3.63 3 7.26 3 11 C2.01 11 1.02 11 0 11 C0 7.37 0 3.74 0 0 Z " fill="#006AE8" transform="translate(87,12)"/>
<path d="M0 0 C0.99 0 1.98 0 3 0 C3 3.63 3 7.26 3 11 C2.01 11 1.02 11 0 11 C0 7.37 0 3.74 0 0 Z " fill="#006AE8" transform="translate(38,12)"/>
<path d="M0 0 C-0.52268466 2.76276177 -1.10869587 5.3260876 -2 8 C-2.66 8 -3.32 8 -4 8 C-4.6875 5.6875 -4.6875 5.6875 -5 3 C-3.40083326 0.79162689 -2.76966516 0 0 0 Z " fill="#4A6478" transform="translate(90,64)"/>
<path d="M0 0 C3.875 1.75 3.875 1.75 5 4 C4.5625 6.125 4.5625 6.125 4 8 C3.34 8 2.68 8 2 8 C0.74335022 5.09399739 0 3.20395416 0 0 Z " fill="#405465" transform="translate(38,64)"/>
<path d="M0 0 C2.4375 0.375 2.4375 0.375 5 1 C5.33 1.66 5.66 2.32 6 3 C3.36 3 0.72 3 -2 3 C-1.34 2.01 -0.68 1.02 0 0 Z " fill="#485E72" transform="translate(62,83)"/>
<path d="M0 0 C3.65316671 1.24976756 4.78065836 1.67098753 7 5 C5.35 5 3.7 5 2 5 C1.34 3.35 0.68 1.7 0 0 Z " fill="#506C82" transform="translate(75,37)"/>
<path d="M0 0 C0.5625 1.9375 0.5625 1.9375 1 4 C0 5 0 5 -2.5625 5.0625 C-3.7690625 5.0315625 -3.7690625 5.0315625 -5 5 C-3.35 3.35 -1.7 1.7 0 0 Z " fill="#506B82" transform="translate(51,37)"/>
</svg>
