<?xml version="1.0" encoding="UTF-8"?>
<svg version="1.1" xmlns="http://www.w3.org/2000/svg" width="128" height="128">
<path d="M0 0 C1.36627281 -0.01007584 1.36627281 -0.01007584 2.76014709 -0.02035522 C5.77643257 -0.03938082 8.79249612 -0.0432616 11.80883789 -0.04541016 C13.90247185 -0.05183446 15.99610489 -0.05856254 18.08973694 -0.06558228 C22.48041872 -0.07756614 26.87102176 -0.08126191 31.26171875 -0.08007812 C36.89224389 -0.07987477 42.52226521 -0.10718904 48.15267086 -0.14162254 C52.47720161 -0.16384132 56.8016101 -0.16791722 61.12619209 -0.16685867 C63.20226339 -0.16922175 65.27833771 -0.17808479 67.35435295 -0.19352341 C70.25612741 -0.2130835 73.15680221 -0.20738482 76.05859375 -0.1953125 C76.91846893 -0.20655151 77.77834412 -0.21779053 78.66427612 -0.22937012 C84.49229972 -0.16764616 84.49229972 -0.16764616 87.59620667 2.19589233 C90.56523018 6.34803054 90.20865315 9.97245805 90.15649414 14.91552734 C90.15198242 15.71732422 90.1474707 16.51912109 90.14282227 17.34521484 C90.13102582 19.3270174 90.11309019 21.30878168 90.09399414 23.29052734 C90.83649414 23.20802734 91.57899414 23.12552734 92.34399414 23.04052734 C95.09399414 23.29052734 95.09399414 23.29052734 97.23252869 24.81227112 C99.76445115 28.18313819 99.66297232 31.13897774 99.62744141 35.19262695 C99.64036476 36.3811451 99.64036476 36.3811451 99.65354919 37.59367371 C99.67623433 40.21040606 99.66946567 42.82606958 99.66040039 45.44287109 C99.66563514 47.26363951 99.67191108 49.08440521 99.67918396 50.90516663 C99.68959306 54.72084311 99.68501989 58.5361468 99.67041016 62.35180664 C99.65322785 67.23920759 99.67670764 72.12543232 99.71189976 77.01270199 C99.73387239 80.77287065 99.73243254 84.53275785 99.72413445 88.29297066 C99.72331472 90.09468437 99.73018214 91.8964187 99.74490547 93.69807243 C99.76234808 96.21912533 99.74781311 98.73806492 99.72509766 101.2590332 C99.74263596 102.3727832 99.74263596 102.3727832 99.76052856 103.5090332 C99.68886231 107.42284341 99.20936703 109.14475537 96.75067139 112.25128174 C93.454627 114.78130079 91.60431192 114.94107094 87.48071289 114.99755859 C86.23354492 115.0265625 84.98637695 115.05556641 83.70141602 115.08544922 C82.4078418 115.09125 81.11426758 115.09705078 79.78149414 115.10302734 C78.46858398 115.12816406 77.15567383 115.15330078 75.80297852 115.17919922 C72.56634925 115.23804702 69.33107196 115.27434671 66.09399414 115.29052734 C66.74754883 116.38623047 67.40110352 117.48193359 68.07446289 118.61083984 C69.88127486 121.64001179 70.62263642 123.69575982 70.09399414 127.29052734 C68.31482947 129.06969201 65.71086115 128.41817569 63.30493164 128.41992188 C62.06694824 128.42307404 60.82896484 128.4262262 59.5534668 128.42947388 C58.19197555 128.42768409 56.83048463 128.42563314 55.46899414 128.42333984 C54.0827635 128.42401294 52.69653297 128.424983 51.31030273 128.42623901 C48.40159992 128.42771574 45.49292777 128.42556224 42.58422852 128.42089844 C38.84802816 128.41520115 35.11189963 128.41848029 31.3757019 128.4244709 C28.51220148 128.42807719 25.64871821 128.42693762 22.78521729 128.42434311 C21.40724682 128.42367403 20.02927482 128.42450161 18.65130615 128.42682266 C16.7285566 128.42935026 14.80580162 128.42481758 12.88305664 128.41992188 C11.23877686 128.41872849 11.23877686 128.41872849 9.5612793 128.41751099 C7.09399414 128.29052734 7.09399414 128.29052734 6.09399414 127.29052734 C6.46778094 122.43129895 7.48561369 119.35735708 10.09399414 115.29052734 C8.86096558 115.28436401 8.86096558 115.28436401 7.60302734 115.27807617 C3.87012372 115.24513491 0.13885081 115.17448631 -3.59350586 115.10302734 C-4.88708008 115.09722656 -6.1806543 115.09142578 -7.51342773 115.08544922 C-8.7605957 115.05644531 -10.00776367 115.02744141 -11.29272461 114.99755859 C-12.4395874 114.98184814 -13.5864502 114.9661377 -14.76806641 114.94995117 C-18.95285745 114.0705362 -20.26432806 112.62824902 -22.90600586 109.29052734 C-23.39624698 106.41287187 -23.58231154 104.12954603 -23.53710938 101.2590332 C-23.54426468 100.46493546 -23.55141998 99.67083771 -23.55879211 98.85267639 C-23.57565657 96.23631699 -23.55629287 93.62167643 -23.53491211 91.00537109 C-23.53574094 89.18363809 -23.53820085 87.36190515 -23.54222107 85.54017639 C-23.54507741 81.72618036 -23.53039268 77.91277213 -23.50292969 74.09887695 C-23.46882277 69.21038807 -23.47487459 64.32294847 -23.49359226 59.43440914 C-23.50416004 55.67427321 -23.4952269 51.91438149 -23.48020744 48.15426826 C-23.47502515 46.35174853 -23.47550801 44.5492033 -23.4817524 42.74668694 C-23.48720299 40.22810875 -23.46683703 37.71103382 -23.43945312 35.19262695 C-23.445979 34.44810272 -23.45250488 33.70357849 -23.45922852 32.93649292 C-23.39544142 29.48641133 -23.14254824 27.6054473 -21.04454041 24.81227112 C-18.46056928 22.97356246 -17.01112169 22.94551447 -13.90600586 23.29052734 C-13.92920898 22.10974609 -13.95241211 20.92896484 -13.97631836 19.71240234 C-13.99508083 18.15511701 -14.01328052 16.59782483 -14.03100586 15.04052734 C-14.04776367 14.26322266 -14.06452148 13.48591797 -14.08178711 12.68505859 C-14.14502884 5.28577662 -14.14502884 5.28577662 -11.90600586 2.29052734 C-7.96316145 -0.3380356 -4.57691271 -0.00481307 0 0 Z " fill="#B78002" transform="translate(25.906005859375,-0.29052734375)"/>
<path d="M0 0 C27.06 0 54.12 0 82 0 C82 21.45 82 42.9 82 65 C54.94 65 27.88 65 0 65 C0 43.55 0 22.1 0 0 Z " fill="#FAF24B" transform="translate(23,28)"/>
<path d="M0 0 C29.7 0 59.4 0 90 0 C90.020625 11.859375 90.04125 23.71875 90.0625 35.9375 C90.071604 39.68730225 90.08070801 43.43710449 90.09008789 47.30053711 C90.09460449 51.86633301 90.09460449 51.86633301 90.09544373 54.00123596 C90.09698308 55.4978617 90.10050784 56.99448617 90.10557556 58.49110413 C90.11285459 60.75312467 90.11390737 63.01506918 90.11352539 65.27709961 C90.115746 66.55395126 90.11796661 67.83080292 90.12025452 69.14634705 C90 72 90 72 89 73 C86.26649252 73.10048523 83.55822108 73.13616261 80.82421875 73.12939453 C79.53893784 73.13202301 79.53893784 73.13202301 78.22769165 73.13470459 C75.3809408 73.13912417 72.53425153 73.13618475 69.6875 73.1328125 C67.71834298 73.13348551 65.74918603 73.13445551 63.7800293 73.13571167 C59.64729015 73.13718879 55.51457258 73.13503364 51.38183594 73.13037109 C46.07175479 73.1246738 40.76172419 73.12795273 35.4516449 73.13394356 C31.38374447 73.1375488 27.31585611 73.13641076 23.24795532 73.13381577 C21.28943882 73.13314639 19.33092124 73.13397527 17.37240601 73.13629532 C14.640168 73.13882124 11.90801303 73.13498211 9.17578125 73.12939453 C7.94923325 73.13243088 7.94923325 73.13243088 6.69790649 73.13552856 C1.11426246 73.11426246 1.11426246 73.11426246 0 72 C-0.09436529 69.76070114 -0.11742327 67.5183825 -0.11352539 65.27709961 C-0.11364593 64.56330171 -0.11376646 63.8495038 -0.11389065 63.11407566 C-0.11314165 60.79346713 -0.10551405 58.47293799 -0.09765625 56.15234375 C-0.09618679 54.7236739 -0.0951661 53.29500351 -0.09460449 51.86633301 C-0.08935208 46.55671382 -0.07539099 41.24710614 -0.0625 35.9375 C-0.041875 24.078125 -0.02125 12.21875 0 0 Z M4 4 C4 25.45 4 46.9 4 69 C31.06 69 58.12 69 86 69 C86 47.55 86 26.1 86 4 C58.94 4 31.88 4 4 4 Z " fill="#B88405" transform="translate(19,24)"/>
<path d="M0 0 C0.83123383 0.00404846 1.66246765 0.00809692 2.51889038 0.01226807 C3.3937912 0.00876343 4.26869202 0.00525879 5.17010498 0.00164795 C8.07160296 -0.00717824 10.97285852 -0.00131709 13.87435913 0.00543213 C15.88453214 0.00408573 17.89470482 0.00214542 19.90487671 -0.00036621 C24.12162368 -0.00331868 28.33828604 0.00098411 32.55502319 0.01031494 C37.96928137 0.02170952 43.38334127 0.01515071 48.79759216 0.00317001 C52.94961042 -0.00404527 57.10158142 -0.00176218 61.25360107 0.0034256 C63.25036645 0.00476301 65.24713607 0.00311119 67.24389648 -0.00153351 C70.03098983 -0.0065933 72.81775879 0.00110375 75.60482788 0.01226807 C76.43606171 0.0082196 77.26729553 0.00417114 78.12371826 0 C83.83333114 0.04252914 83.83333114 0.04252914 86.06185913 2.27105713 C86.06185913 5.90105713 86.06185913 9.53105713 86.06185913 13.27105713 C55.04185913 13.27105713 24.02185913 13.27105713 -7.93814087 13.27105713 C-7.93814087 0.05912875 -7.93814087 0.05912875 0 0 Z " fill="#FCBE05" transform="translate(24.938140869140625,3.72894287109375)"/>
<path d="M0 0 C4.47915328 -0.02886338 8.95828291 -0.04675187 13.4375 -0.0625 C14.71689453 -0.07087891 15.99628906 -0.07925781 17.31445312 -0.08789062 C19.13686523 -0.09272461 19.13686523 -0.09272461 20.99609375 -0.09765625 C22.12200928 -0.10289307 23.2479248 -0.10812988 24.40795898 -0.11352539 C27 0 27 0 28 1 C28.1007812 3.36398468 28.13973215 5.69811311 28.1328125 8.0625 C28.13424759 9.12223022 28.13424759 9.12223022 28.13571167 10.20336914 C28.13639333 11.69970793 28.13454005 13.19604967 28.13037109 14.69238281 C28.12502257 16.99030157 28.13031651 19.28802486 28.13671875 21.5859375 C28.13605797 23.03645877 28.1347768 24.48697991 28.1328125 25.9375 C28.13483673 26.6291626 28.13686096 27.3208252 28.13894653 28.03344727 C28.11495224 32.88504776 28.11495224 32.88504776 27 34 C25.08541718 34.09971786 23.16717683 34.13080589 21.25 34.1328125 C20.0846875 34.13410156 18.919375 34.13539062 17.71875 34.13671875 C16.4915625 34.13285156 15.264375 34.12898438 14 34.125 C12.15921875 34.13080078 12.15921875 34.13080078 10.28125 34.13671875 C9.1159375 34.13542969 7.950625 34.13414063 6.75 34.1328125 C5.67234375 34.13168457 4.5946875 34.13055664 3.484375 34.12939453 C1 34 1 34 0 33 C-0.08843793 30.55169574 -0.11528752 28.13179401 -0.09765625 25.68359375 C-0.0962413 24.95253922 -0.09482635 24.22148468 -0.09336853 23.46827698 C-0.08775408 21.12464368 -0.07519922 18.78110461 -0.0625 16.4375 C-0.05748686 14.85221492 -0.05292363 13.26692834 -0.04882812 11.68164062 C-0.03777997 7.7877239 -0.02050572 3.89387795 0 0 Z " fill="#FDBF05" transform="translate(27,55)"/>
<path d="M0 0 C31.68 0 63.36 0 96 0 C96.061875 12.313125 96.12375 24.62625 96.1875 37.3125 C96.22846802 43.144823 96.22846802 43.144823 96.27026367 49.0949707 C96.28381348 53.84216309 96.28381348 53.84216309 96.28633118 56.06437683 C96.29093863 57.61677122 96.30149139 59.16915486 96.31672668 60.72148132 C96.33864985 63.07273008 96.34171933 65.42332272 96.34057617 67.7746582 C96.3513705 68.46649106 96.36216482 69.15832392 96.37328625 69.87112141 C96.34275844 74.55370481 96.34275844 74.55370481 94.71228504 76.67669392 C91.7372866 78.97586341 88.05627344 78.41472895 84.4453125 78.38818359 C83.13515167 78.39606903 83.13515167 78.39606903 81.79852295 78.40411377 C78.9071675 78.41733324 76.01636119 78.4085688 73.125 78.3984375 C71.11865127 78.40045768 69.11230325 78.40336864 67.10595703 78.40713501 C62.89934301 78.411561 58.69291997 78.40511841 54.48632812 78.39111328 C49.08892617 78.3740213 43.69197171 78.38386101 38.29458618 78.40183067 C34.15108862 78.41266104 30.00769751 78.40922559 25.86419678 78.4014473 C23.8738398 78.39944322 21.88347321 78.4019118 19.89312744 78.40888596 C17.11338632 78.41648811 14.3343742 78.40491363 11.5546875 78.38818359 C10.72862 78.39425629 9.90255249 78.40032898 9.05145264 78.40658569 C3.44503833 78.34393919 3.44503833 78.34393919 1.28771496 76.67669392 C-0.77808099 73.98688475 -0.39129958 71.02563691 -0.34057617 67.7746582 C-0.34093778 67.03088267 -0.34129938 66.28710714 -0.34167194 65.52079296 C-0.33943322 63.11384832 -0.31659046 60.70760116 -0.29296875 58.30078125 C-0.28855775 56.81457861 -0.28549731 55.32837132 -0.28381348 53.84216309 C-0.26808652 48.3322043 -0.22620284 42.8223453 -0.1875 37.3125 C-0.125625 24.999375 -0.06375 12.68625 0 0 Z M3 3 C2.979375 14.859375 2.95875 26.71875 2.9375 38.9375 C2.928396 42.68730225 2.91929199 46.43710449 2.90991211 50.30053711 C2.90656845 53.65088608 2.90656845 53.65088608 2.90455627 57.00123596 C2.90301692 58.4978617 2.89949216 59.99448617 2.89442444 61.49110413 C2.88714541 63.75312467 2.88609263 66.01506918 2.88647461 68.27709961 C2.884254 69.55395126 2.88203339 70.83080292 2.87974548 72.14634705 C2.67331911 74.89888855 2.67331911 74.89888855 4 76 C6.73350748 76.10048523 9.44177892 76.13616261 12.17578125 76.12939453 C13.03263519 76.13114685 13.88948914 76.13289917 14.77230835 76.13470459 C17.6190592 76.13912417 20.46574847 76.13618475 23.3125 76.1328125 C25.28165702 76.13348551 27.25081397 76.13445551 29.2199707 76.13571167 C33.35270985 76.13718879 37.48542742 76.13503364 41.61816406 76.13037109 C46.92824521 76.1246738 52.23827581 76.12795273 57.5483551 76.13394356 C61.61625553 76.1375488 65.68414389 76.13641076 69.75204468 76.13381577 C71.71056118 76.13314639 73.66907876 76.13397527 75.62759399 76.13629532 C78.359832 76.13882124 81.09198697 76.13498211 83.82421875 76.12939453 C85.05076675 76.13243088 85.05076675 76.13243088 86.30209351 76.13552856 C89.95057616 76.46753641 89.95057616 76.46753641 93 75 C93.09436529 72.76070114 93.11742327 70.5183825 93.11352539 68.27709961 C93.11364593 67.56330171 93.11376646 66.8495038 93.11389065 66.11407566 C93.11314165 63.79346713 93.10551405 61.47293799 93.09765625 59.15234375 C93.09618679 57.7236739 93.0951661 56.29500351 93.09460449 54.86633301 C93.08935208 49.55671382 93.07539099 44.24710614 93.0625 38.9375 C93.0315625 21.1484375 93.0315625 21.1484375 93 3 C63.3 3 33.6 3 3 3 Z " fill="#EBD93B" transform="translate(16,21)"/>
<path d="M0 0 C14.85 0 29.7 0 45 0 C45 5.61 45 11.22 45 17 C44 18 44 18 42.20933533 18.12025452 C41.42990067 18.11803391 40.650466 18.11581329 39.84741211 18.11352539 C38.96657455 18.11344986 38.085737 18.11337433 37.1782074 18.11329651 C36.22092239 18.10813522 35.26363739 18.10297394 34.27734375 18.09765625 C33.30213272 18.0962413 32.32692169 18.09482635 31.32215881 18.09336853 C28.19390857 18.08775133 25.06572877 18.07519593 21.9375 18.0625 C19.82226666 18.05748722 17.70703219 18.05292393 15.59179688 18.04882812 C10.39450393 18.03777631 5.19726392 18.02050016 0 18 C0 12.06 0 6.12 0 0 Z " fill="#B98202" transform="translate(27,32)"/>
<path d="M0 0 C37.62 0 75.24 0 114 0 C113 5 113 5 112 6 C110.57519229 6.09985952 109.14547809 6.13074913 107.71717834 6.13371277 C106.79313705 6.13797775 105.86909576 6.14224274 104.91705322 6.14663696 C103.89520935 6.14618378 102.87336548 6.14573059 101.82055664 6.14526367 C100.75073044 6.14862228 99.68090424 6.1519809 98.57865906 6.15544128 C95.02247983 6.16498372 91.46634751 6.16689602 87.91015625 6.16796875 C85.45014933 6.17117897 82.99014261 6.17454286 80.53013611 6.17805481 C75.36587074 6.18405428 70.20162213 6.18589387 65.03735352 6.18530273 C58.40456082 6.18520105 51.77187503 6.1988562 45.1391077 6.21607494 C40.05634564 6.22716751 34.97360965 6.22922279 29.89083672 6.22869301 C27.44470285 6.22987717 24.99856839 6.23432311 22.55244637 6.24202538 C19.137833 6.2517703 15.72345465 6.24896906 12.30883789 6.24291992 C11.28901825 6.24853943 10.26919861 6.25415894 9.21847534 6.25994873 C7.82818367 6.253657 7.82818367 6.253657 6.4098053 6.24723816 C5.19775217 6.24805531 5.19775217 6.24805531 3.96121311 6.24888897 C2 6 2 6 0 4 C0 2.68 0 1.36 0 0 Z " fill="#FDBF05" transform="translate(7,103)"/>
<path d="M0 0 C1.71676877 -0.05978153 3.43503102 -0.08371114 5.15283203 -0.07836914 C6.06517609 -0.09122452 6.97752014 -0.1040799 7.91751099 -0.11732483 C9.8456476 -0.1345361 11.77397898 -0.13606853 13.70214844 -0.12304688 C16.64614188 -0.11357207 19.58105467 -0.18386279 22.52392578 -0.26000977 C36.16564975 -0.39504021 36.16564975 -0.39504021 40.44287109 2.82348633 C42.45332537 5.76597445 43.78564453 8.22047157 43.78564453 11.82397461 C25.96564453 11.82397461 8.14564453 11.82397461 -10.21435547 11.82397461 C-5.73202965 0.61816006 -5.73202965 0.61816006 0 0 Z " fill="#FAF14A" transform="translate(47.21435546875,112.176025390625)"/>
<path d="M0 0 C9.24 0 18.48 0 28 0 C28.020625 2.784375 28.04125 5.56875 28.0625 8.4375 C28.071604 9.31591553 28.08070801 10.19433105 28.09008789 11.09936523 C28.09723091 13.06645974 28.05031893 15.03353621 28 17 C26.22550406 18.77449594 23.64982739 18.13030072 21.25 18.1328125 C20.0846875 18.13410156 18.919375 18.13539062 17.71875 18.13671875 C16.4915625 18.13285156 15.264375 18.12898438 14 18.125 C12.15921875 18.13080078 12.15921875 18.13080078 10.28125 18.13671875 C9.1159375 18.13542969 7.950625 18.13414063 6.75 18.1328125 C5.67234375 18.13168457 4.5946875 18.13055664 3.484375 18.12939453 C1 18 1 18 0 17 C-0.07330331 14.13530675 -0.09217831 11.30106326 -0.0625 8.4375 C-0.041875 5.653125 -0.02125 2.86875 0 0 Z " fill="#B88203" transform="translate(57,55)"/>
<path d="M0 0 C1.5631897 0.00785522 1.5631897 0.00785522 3.15795898 0.01586914 C4.28266602 0.0190918 5.40737305 0.02231445 6.56616211 0.02563477 C7.75016602 0.03401367 8.93416992 0.04239258 10.15405273 0.05102539 C11.34192383 0.05553711 12.52979492 0.06004883 13.75366211 0.06469727 C16.69964685 0.07652853 19.64560589 0.09446463 22.59155273 0.11352539 C22.59155273 6.05352539 22.59155273 11.99352539 22.59155273 18.11352539 C18.44567691 18.14034989 14.29997235 18.16027854 10.15405273 18.17602539 C8.37804687 18.18859375 8.37804687 18.18859375 6.56616211 18.20141602 C5.44145508 18.20463867 4.31674805 18.20786133 3.15795898 18.21118164 C1.59476929 18.21903687 1.59476929 18.21903687 0 18.22705078 C-2.40844727 18.11352539 -2.40844727 18.11352539 -3.40844727 17.11352539 C-3.5082594 14.43621159 -3.54724602 11.79048365 -3.53344727 9.11352539 C-3.53731445 8.36329102 -3.54118164 7.61305664 -3.54516602 6.84008789 C-3.5331199 0.16653834 -3.5331199 0.16653834 0 0 Z " fill="#BB8504" transform="translate(78.408447265625,31.886474609375)"/>
<path d="M0 0 C5 1 5 1 6 2 C6.09429342 4.17805719 6.11742538 6.3592128 6.11352539 8.53930664 C6.11367142 9.22220261 6.11381744 9.90509857 6.1139679 10.60868835 C6.11326876 12.87587614 6.1054764 15.14298274 6.09765625 17.41015625 C6.09579207 18.97814387 6.09436817 20.54613207 6.09336853 22.11412048 C6.08954334 26.24876503 6.07971306 30.38337466 6.06866455 34.51800537 C6.05845044 38.73400398 6.05387091 42.95000822 6.04882812 47.16601562 C6.03809079 55.44402647 6.02101436 63.7220089 6 72 C3.69 72 1.38 72 -1 72 C-0.67 48.24 -0.34 24.48 0 0 Z " fill="#F7EE48" transform="translate(115,27)"/>
<path d="M0 0 C1.32 0 2.64 0 4 0 C4.33 23.76 4.66 47.52 5 72 C2.69 72 0.38 72 -2 72 C-2.04628063 62.90769199 -2.08184737 53.81542434 -2.10362434 44.72302437 C-2.11407464 40.5013425 -2.12825645 36.27974105 -2.15087891 32.05810547 C-2.17256303 27.98622723 -2.18455923 23.91442647 -2.18975449 19.84249496 C-2.19345824 18.28670913 -2.20069046 16.73092768 -2.21146011 15.17517471 C-2.22591638 13.00096626 -2.22798044 10.82708058 -2.22705078 8.65283203 C-2.231492 7.41373077 -2.23593323 6.17462952 -2.24050903 4.89797974 C-2 2 -2 2 0 0 Z " fill="#F7EE48" transform="translate(9,27)"/>
<path d="M0 0 C4.47915328 -0.02886338 8.95828291 -0.04675187 13.4375 -0.0625 C14.71689453 -0.07087891 15.99628906 -0.07925781 17.31445312 -0.08789062 C19.13686523 -0.09272461 19.13686523 -0.09272461 20.99609375 -0.09765625 C22.12200928 -0.10289307 23.2479248 -0.10812988 24.40795898 -0.11352539 C27 0 27 0 28 1 C28.1007812 3.36398468 28.13973215 5.69811311 28.1328125 8.0625 C28.13424759 9.12223022 28.13424759 9.12223022 28.13571167 10.20336914 C28.13639333 11.69970793 28.13454005 13.19604967 28.13037109 14.69238281 C28.12502257 16.99030157 28.13031651 19.28802486 28.13671875 21.5859375 C28.13605797 23.03645877 28.1347768 24.48697991 28.1328125 25.9375 C28.13483673 26.6291626 28.13686096 27.3208252 28.13894653 28.03344727 C28.11495224 32.88504776 28.11495224 32.88504776 27 34 C25.08541718 34.09971786 23.16717683 34.13080589 21.25 34.1328125 C20.0846875 34.13410156 18.919375 34.13539062 17.71875 34.13671875 C16.4915625 34.13285156 15.264375 34.12898438 14 34.125 C12.15921875 34.13080078 12.15921875 34.13080078 10.28125 34.13671875 C9.1159375 34.13542969 7.950625 34.13414063 6.75 34.1328125 C5.67234375 34.13168457 4.5946875 34.13055664 3.484375 34.12939453 C1 34 1 34 0 33 C-0.08843793 30.55169574 -0.11528752 28.13179401 -0.09765625 25.68359375 C-0.0962413 24.95253922 -0.09482635 24.22148468 -0.09336853 23.46827698 C-0.08775408 21.12464368 -0.07519922 18.78110461 -0.0625 16.4375 C-0.05748686 14.85221492 -0.05292363 13.26692834 -0.04882812 11.68164062 C-0.03777997 7.7877239 -0.02050572 3.89387795 0 0 Z M4 4 C4 12.58 4 21.16 4 30 C10.6 30 17.2 30 24 30 C24 21.42 24 12.84 24 4 C17.4 4 10.8 4 4 4 Z " fill="#B98304" transform="translate(27,55)"/>
<path d="M0 0 C3.96 0 7.92 0 12 0 C12.02465288 4.68139254 12.04283739 9.36274759 12.05493164 14.04418945 C12.05997157 15.63794614 12.0668035 17.23169819 12.07543945 18.82543945 C12.08751999 21.11150253 12.09323155 23.39750467 12.09765625 25.68359375 C12.10281754 26.40026718 12.10797882 27.11694061 12.11329651 27.85533142 C12.11349263 29.57063672 12.06192007 31.28581266 12 33 C11.505 33.495 11.505 33.495 11 34 C7.37 34 3.74 34 0 34 C0 22.78 0 11.56 0 0 Z " fill="#B98303" transform="translate(89,55)"/>
<path d="M0 0 C12.21 0 24.42 0 37 0 C37 3.3 37 6.6 37 10 C24.79 10 12.58 10 0 10 C0 6.7 0 3.4 0 0 Z " fill="#FEC005" transform="translate(31,36)"/>
<path d="M0 0 C1.1653125 -0.00128906 2.330625 -0.00257812 3.53125 -0.00390625 C4.7584375 -0.00003906 5.985625 0.00382812 7.25 0.0078125 C9.09078125 0.00201172 9.09078125 0.00201172 10.96875 -0.00390625 C12.71671875 -0.00197266 12.71671875 -0.00197266 14.5 0 C15.57765625 0.00112793 16.6553125 0.00225586 17.765625 0.00341797 C20.25 0.1328125 20.25 0.1328125 21.25 1.1328125 C21.34823937 2.79710301 21.37973631 4.46563181 21.375 6.1328125 C21.37886719 7.4940625 21.37886719 7.4940625 21.3828125 8.8828125 C21.25 11.1328125 21.25 11.1328125 20.25 12.1328125 C18.33541718 12.23253036 16.41717683 12.26361839 14.5 12.265625 C13.3346875 12.26691406 12.169375 12.26820312 10.96875 12.26953125 C9.7415625 12.26566406 8.514375 12.26179688 7.25 12.2578125 C5.40921875 12.26361328 5.40921875 12.26361328 3.53125 12.26953125 C2.3659375 12.26824219 1.200625 12.26695313 0 12.265625 C-1.07765625 12.26449707 -2.1553125 12.26336914 -3.265625 12.26220703 C-5.75 12.1328125 -5.75 12.1328125 -6.75 11.1328125 C-6.84823937 9.46852199 -6.87973631 7.79999319 -6.875 6.1328125 C-6.87757812 5.2253125 -6.88015625 4.3178125 -6.8828125 3.3828125 C-6.62013627 -1.06723193 -3.83798201 0.00401703 0 0 Z " fill="#B88204" transform="translate(63.75,76.8671875)"/>
<path d="M0 0 C0.33 0 0.66 0 1 0 C1.04627979 9.22269206 1.08184694 18.44534434 1.10362434 27.66812706 C1.11407483 31.95034248 1.12825697 36.23247864 1.15087891 40.51464844 C1.17256238 44.64488126 1.18455909 48.77503769 1.18975449 52.90532303 C1.19345835 54.48343738 1.2006908 56.06154741 1.21146011 57.63962936 C1.22591549 59.84496951 1.22798048 62.04999142 1.22705078 64.25537109 C1.231492 65.51223724 1.23593323 66.76910339 1.24050903 68.0640564 C1 71 1 71 -1 73 C-3.83173095 73.188174 -6.56490752 73.2517338 -9.39697266 73.22705078 C-10.69951241 73.22748886 -10.69951241 73.22748886 -12.02836609 73.22793579 C-14.90703218 73.22653917 -17.78544146 73.21096242 -20.6640625 73.1953125 C-22.6566046 73.19158355 -24.64914853 73.18873602 -26.64169312 73.18673706 C-31.89262939 73.17909132 -37.14345548 73.15943477 -42.39434814 73.1373291 C-47.74986276 73.11689091 -53.10539514 73.10773969 -58.4609375 73.09765625 C-68.97400681 73.07618975 -79.48699425 73.04204249 -90 73 C-90 72.34 -90 71.68 -90 71 C-88.89974991 70.98969254 -87.79949982 70.97938507 -86.66590881 70.96876526 C-76.32071326 70.87120698 -65.97558023 70.76849005 -55.63048649 70.66066074 C-50.31137779 70.60538593 -44.99226365 70.55195878 -39.6730957 70.50268555 C-34.54431133 70.45510906 -29.4155961 70.40276896 -24.28689384 70.34705925 C-22.32560372 70.32660516 -20.36429462 70.30789725 -18.40297127 70.29092598 C-15.66579416 70.26694931 -12.928749 70.23688596 -10.19165039 70.20532227 C-9.37238068 70.1995668 -8.55311096 70.19381134 -7.70901489 70.18788147 C-4.05336705 70.48227006 -4.05336705 70.48227006 -1 69 C-0.87603129 66.85331715 -0.8219928 64.70257613 -0.79467773 62.55249023 C-0.78477814 61.87934784 -0.77487854 61.20620544 -0.76467896 60.51266479 C-0.73298162 58.27801075 -0.70827426 56.04333542 -0.68359375 53.80859375 C-0.66303131 52.26302016 -0.64203504 50.71745228 -0.62062073 49.17189026 C-0.56532663 45.09649268 -0.51594987 41.02104375 -0.46777344 36.94555664 C-0.41761183 32.7898296 -0.36189796 28.63417748 -0.30664062 24.47851562 C-0.19896936 16.3190737 -0.09754448 8.15956924 0 0 Z " fill="#FEF94F" transform="translate(110,26)"/>
<path d="M0 0 C6.6 0 13.2 0 20 0 C20 3.3 20 6.6 20 10 C13.4 10 6.8 10 0 10 C0 6.7 0 3.4 0 0 Z " fill="#FEC005" transform="translate(61,59)"/>
<path d="M0 0 C5.61 0 11.22 0 17 0 C17 3.3 17 6.6 17 10 C11.39 10 5.78 10 0 10 C0 6.7 0 3.4 0 0 Z " fill="#FFC106" transform="translate(80,36)"/>
<path d="M0 0 C10.56 0 21.12 0 32 0 C32 1.32 32 2.64 32 4 C21.77 4 11.54 4 1 4 C0.67 2.68 0.34 1.36 0 0 Z " fill="#B98202" transform="translate(73,9)"/>
<path d="M0 0 C1.32 0 2.64 0 4 0 C4 8.58 4 17.16 4 26 C2.68 26 1.36 26 0 26 C0 17.42 0 8.84 0 0 Z " fill="#FEC005" transform="translate(93,59)"/>
<path d="M0 0 C6.6 0 13.2 0 20 0 C20 1.32 20 2.64 20 4 C13.4 4 6.8 4 0 4 C0 2.68 0 1.36 0 0 Z " fill="#FABC05" transform="translate(61,81)"/>
<path d="M0 0 C0.33 0 0.66 0 1 0 C1.33 24.42 1.66 48.84 2 74 C1.01 73.34 0.02 72.68 -1 72 C-1.32279968 69.02609253 -1.32279968 69.02609253 -1.2487793 65.16357422 C-1.23480606 64.10975052 -1.23480606 64.10975052 -1.22055054 63.03463745 C-1.18611617 60.70750247 -1.13023579 58.38139487 -1.07421875 56.0546875 C-1.04619279 54.44331055 -1.01950162 52.83190988 -0.99409485 51.2204895 C-0.92356424 46.97539739 -0.83485851 42.73087036 -0.74243164 38.48620605 C-0.65134524 34.15636341 -0.57735736 29.82623286 -0.50195312 25.49609375 C-0.35141934 16.9970191 -0.18169383 8.49846531 0 0 Z " fill="#F6EC47" transform="translate(18,25)"/>
<path d="M0 0 C0.99 0.33 1.98 0.66 3 1 C2.67 2.32 2.34 3.64 2 5 C0.68 4.67 -0.64 4.34 -2 4 C-1.34 2.68 -0.68 1.36 0 0 Z " fill="#BF8702" transform="translate(23,8)"/>
<path d="M0 0 C1.65 0 3.3 0 5 0 C4.67 1.32 4.34 2.64 4 4 C2.68 3.67 1.36 3.34 0 3 C0 2.01 0 1.02 0 0 Z " fill="#BD8502" transform="translate(39,9)"/>
<path d="M0 0 C1.32 0 2.64 0 4 0 C3.67 1.32 3.34 2.64 3 4 C1.68 3.67 0.36 3.34 -1 3 C-0.67 2.01 -0.34 1.02 0 0 Z " fill="#BB8302" transform="translate(31,9)"/>
</svg>
